<svg role="img" viewBox="0 0 24 24" xmlns="http://www.w3.org/2000/svg">
  <title>Ollama</title>
  <path fill="#DC2626" d="M12 2C6.48 2 2 6.48 2 12s4.48 10 10 10 10-4.48 10-10S17.52 2 12 2zm0 3c1.2 0 2.27.43 3.12 1.15.85-.72 1.92-1.15 3.12-1.15 2.76 0 5 2.24 5 5 0 2.05-1.23 3.81-3 4.58V17c0 1.1-.9 2-2 2H8.76c-1.1 0-2-.9-2-2v-1.42c-1.77-.77-3-2.53-3-4.58 0-2.76 2.24-5 5-5zm0 2c-1.66 0-3 1.34-3 3s1.34 3 3 3 3-1.34 3-3-1.34-3-3-3zm6.24 0c-1.66 0-3 1.34-3 3s1.34 3 3 3 3-1.34 3-3-1.34-3-3-3zM12 8c-.55 0-1 .45-1 1s.45 1 1 1 1-.45 1-1-.45-1-1-1zm6.24 0c-.55 0-1 .45-1 1s.45 1 1 1 1-.45 1-1-.45-1-1-1z"/>
</svg>
